<svg width="164" height="48" viewBox="0 0 164 48" fill="none" xmlns="http://www.w3.org/2000/svg">
<path d="M68 35.5385V12.4615H74.4285V30.3626H85.2725V35.5385H68Z" fill="#E6E6F8"/>
<path d="M98.9284 36C97.1103 36 95.4328 35.7033 93.896 35.1099C92.3593 34.5165 91.0173 33.6813 89.8701 32.6044C88.7446 31.5055 87.868 30.2308 87.2403 28.7802C86.6126 27.3297 86.2987 25.7363 86.2987 24C86.2987 22.2637 86.6126 20.6703 87.2403 19.2198C87.868 17.7692 88.7446 16.5055 89.8701 15.4286C91.0173 14.3297 92.3593 13.4835 93.896 12.8901C95.4328 12.2967 97.1103 12 98.9284 12C100.768 12 102.446 12.2967 103.961 12.8901C105.498 13.4835 106.829 14.3297 107.954 15.4286C109.08 16.5055 109.956 17.7692 110.584 19.2198C111.233 20.6703 111.558 22.2637 111.558 24C111.558 25.7363 111.233 27.3407 110.584 28.8132C109.956 30.2637 109.08 31.5275 107.954 32.6044C106.829 33.6813 105.498 34.5165 103.961 35.1099C102.446 35.7033 100.768 36 98.9284 36ZM98.9284 30.5934C99.7942 30.5934 100.595 30.4396 101.331 30.1319C102.089 29.8242 102.738 29.3846 103.279 28.8132C103.842 28.2198 104.275 27.5165 104.578 26.7033C104.902 25.8901 105.065 24.989 105.065 24C105.065 22.989 104.902 22.0879 104.578 21.2967C104.275 20.4835 103.842 19.7912 103.279 19.2198C102.738 18.6264 102.089 18.1758 101.331 17.8681C100.595 17.5604 99.7942 17.4066 98.9284 17.4066C98.0626 17.4066 97.251 17.5604 96.4934 17.8681C95.7575 18.1758 95.1081 18.6264 94.5454 19.2198C94.0043 19.7912 93.5714 20.4835 93.2467 21.2967C92.9437 22.0879 92.7921 22.989 92.7921 24C92.7921 24.989 92.9437 25.8901 93.2467 26.7033C93.5714 27.5165 94.0043 28.2198 94.5454 28.8132C95.1081 29.3846 95.7575 29.8242 96.4934 30.1319C97.251 30.4396 98.0626 30.5934 98.9284 30.5934Z" fill="#E6E6F8"/>
<path d="M126.289 36C124.492 36 122.825 35.7143 121.289 35.1429C119.752 34.5495 118.421 33.7143 117.295 32.6374C116.191 31.5604 115.325 30.2967 114.698 28.8462C114.07 27.3736 113.756 25.7582 113.756 24C113.756 22.2418 114.07 20.6374 114.698 19.1868C115.325 17.7143 116.202 16.4396 117.328 15.3626C118.453 14.2857 119.784 13.4615 121.321 12.8901C122.879 12.2967 124.579 12 126.418 12C128.561 12 130.477 12.3626 132.165 13.0879C133.853 13.8132 135.249 14.8571 136.353 16.2198L132.262 19.978C131.483 19.1209 130.639 18.4835 129.73 18.0659C128.843 17.6264 127.847 17.4066 126.743 17.4066C125.769 17.4066 124.882 17.5604 124.081 17.8681C123.28 18.1758 122.598 18.6264 122.035 19.2198C121.473 19.7912 121.029 20.4835 120.704 21.2967C120.401 22.0879 120.25 22.989 120.25 24C120.25 24.967 120.401 25.8571 120.704 26.6703C121.029 27.4835 121.473 28.1868 122.035 28.7802C122.598 29.3516 123.269 29.8022 124.048 30.1319C124.849 30.4396 125.726 30.5934 126.678 30.5934C127.63 30.5934 128.561 30.4396 129.47 30.1319C130.379 29.8022 131.299 29.2527 132.23 28.4835L135.834 33.0659C134.535 34.011 133.031 34.7363 131.321 35.2418C129.611 35.7473 127.934 36 126.289 36ZM130.152 32.2088V23.5055H135.834V33.0659L130.152 32.2088Z" fill="#E6E6F8"/>
<path d="M151.37 36C149.552 36 147.875 35.7033 146.338 35.1099C144.801 34.5165 143.459 33.6813 142.312 32.6044C141.186 31.5055 140.31 30.2308 139.682 28.7802C139.054 27.3297 138.741 25.7363 138.741 24C138.741 22.2637 139.054 20.6703 139.682 19.2198C140.31 17.7692 141.186 16.5055 142.312 15.4286C143.459 14.3297 144.801 13.4835 146.338 12.8901C147.875 12.2967 149.552 12 151.37 12C153.21 12 154.888 12.2967 156.403 12.8901C157.939 13.4835 159.271 14.3297 160.396 15.4286C161.522 16.5055 162.398 17.7692 163.026 19.2198C163.675 20.6703 164 22.2637 164 24C164 25.7363 163.675 27.3407 163.026 28.8132C162.398 30.2637 161.522 31.5275 160.396 32.6044C159.271 33.6813 157.939 34.5165 156.403 35.1099C154.888 35.7033 153.21 36 151.37 36ZM151.37 30.5934C152.236 30.5934 153.037 30.4396 153.773 30.1319C154.53 29.8242 155.18 29.3846 155.721 28.8132C156.284 28.2198 156.717 27.5165 157.02 26.7033C157.344 25.8901 157.507 24.989 157.507 24C157.507 22.989 157.344 22.0879 157.02 21.2967C156.717 20.4835 156.284 19.7912 155.721 19.2198C155.18 18.6264 154.53 18.1758 153.773 17.8681C153.037 17.5604 152.236 17.4066 151.37 17.4066C150.505 17.4066 149.693 17.5604 148.935 17.8681C148.199 18.1758 147.55 18.6264 146.987 19.2198C146.446 19.7912 146.013 20.4835 145.689 21.2967C145.386 22.0879 145.234 22.989 145.234 24C145.234 24.989 145.386 25.8901 145.689 26.7033C146.013 27.5165 146.446 28.2198 146.987 28.8132C147.55 29.3846 148.199 29.8242 148.935 30.1319C149.693 30.4396 150.505 30.5934 151.37 30.5934Z" fill="#E6E6F8"/>
<rect width="48" height="48" rx="12" fill="#C4D4F1" fill-opacity="0.32"/>
</svg>
