<svg width="24" height="24" viewBox="0 0 24 24" fill="none" xmlns="http://www.w3.org/2000/svg">
<path d="M9.56788 16C9.34697 16 9.16788 15.8209 9.16788 15.6V8.5C9.16788 8.22386 9.39174 8 9.66788 8H12.5314C13.6058 8 14.4506 8.22857 15.0657 8.68571C15.6886 9.13524 16 9.8019 16 10.6857C16 11.5619 15.6886 12.2286 15.0657 12.6857C14.4506 13.1352 13.6058 13.36 12.5314 13.36H10.0088L10.6861 12.6743V15.6C10.6861 15.8209 10.507 16 10.2861 16H9.56788ZM10.6861 12.8343L10.0088 12.16H12.5197C13.1426 12.16 13.6214 12.0343 13.9562 11.7829C14.2988 11.5238 14.4701 11.1619 14.4701 10.6971C14.4701 10.2324 14.2988 9.8781 13.9562 9.63429C13.6214 9.38286 13.1426 9.25714 12.5197 9.25714H10.0088L10.6861 8.52571V12.8343ZM8.4 14.8114C8.17909 14.8114 8 14.6323 8 14.4114C8 14.1905 8.17909 14.0114 8.4 14.0114H12.8555C13.0764 14.0114 13.2555 14.1905 13.2555 14.4114C13.2555 14.6323 13.0764 14.8114 12.8555 14.8114H8.4Z" fill="#C0C0D5"/>
<path d="M22 12C22 17.52 17.52 22 12 22C6.48 22 2 17.52 2 12C2 6.48 6.48 2 12 2" stroke="#C0C0D5" stroke-width="1.2" stroke-linecap="round" stroke-linejoin="round"/>
<path d="M22 6V2H18" stroke="#C0C0D5" stroke-width="1.2" stroke-linecap="round" stroke-linejoin="round"/>
<path d="M17 7L22 2" stroke="#C0C0D5" stroke-width="1.2" stroke-linecap="round" stroke-linejoin="round"/>
</svg>
