<svg width="60" height="62" viewBox="0 0 60 62" fill="none" xmlns="http://www.w3.org/2000/svg">
<mask id="path-1-inside-1_202_135" fill="white">
<path d="M58.5 32C59.3284 32 60.0039 32.6721 59.9625 33.4995C59.692 38.9066 57.9622 44.1501 54.9441 48.6671C51.6476 53.6006 46.9623 57.4458 41.4805 59.7164C35.9987 61.987 29.9667 62.5811 24.1473 61.4236C18.3279 60.266 12.9824 57.4088 8.7868 53.2132C4.59122 49.0176 1.734 43.6721 0.576442 37.8527C-0.581115 32.0333 0.0129851 26.0013 2.28361 20.5195C4.55424 15.0377 8.39942 10.3524 13.3329 7.05591C17.8499 4.03776 23.0934 2.30803 28.5005 2.03749C29.3279 1.99609 30 2.67157 30 3.5C30 4.32843 29.3279 4.99565 28.5007 5.04165C23.6873 5.30929 19.0232 6.86186 14.9996 9.55032C10.5595 12.5171 7.09882 16.7339 5.05525 21.6675C3.01169 26.6012 2.477 32.03 3.5188 37.2674C4.5606 42.5049 7.1321 47.3159 10.9081 51.0919C14.6841 54.8679 19.4951 57.4394 24.7326 58.4812C29.97 59.523 35.3988 58.9883 40.3325 56.9447C45.2661 54.9012 49.4829 51.4405 52.4497 47.0004C55.1381 42.9768 56.6907 38.3127 56.9584 33.4993C57.0043 32.6721 57.6716 32 58.5 32Z"/>
</mask>
<path d="M58.5 32C59.3284 32 60.0039 32.6721 59.9625 33.4995C59.692 38.9066 57.9622 44.1501 54.9441 48.6671C51.6476 53.6006 46.9623 57.4458 41.4805 59.7164C35.9987 61.987 29.9667 62.5811 24.1473 61.4236C18.3279 60.266 12.9824 57.4088 8.7868 53.2132C4.59122 49.0176 1.734 43.6721 0.576442 37.8527C-0.581115 32.0333 0.0129851 26.0013 2.28361 20.5195C4.55424 15.0377 8.39942 10.3524 13.3329 7.05591C17.8499 4.03776 23.0934 2.30803 28.5005 2.03749C29.3279 1.99609 30 2.67157 30 3.5C30 4.32843 29.3279 4.99565 28.5007 5.04165C23.6873 5.30929 19.0232 6.86186 14.9996 9.55032C10.5595 12.5171 7.09882 16.7339 5.05525 21.6675C3.01169 26.6012 2.477 32.03 3.5188 37.2674C4.5606 42.5049 7.1321 47.3159 10.9081 51.0919C14.6841 54.8679 19.4951 57.4394 24.7326 58.4812C29.97 59.523 35.3988 58.9883 40.3325 56.9447C45.2661 54.9012 49.4829 51.4405 52.4497 47.0004C55.1381 42.9768 56.6907 38.3127 56.9584 33.4993C57.0043 32.6721 57.6716 32 58.5 32Z" stroke="#C4D4F1" stroke-opacity="0.24" stroke-width="8" mask="url(#path-1-inside-1_202_135)"/>
<mask id="path-2-inside-2_202_135" fill="white">
<path d="M50.1525 52.1525C50.7383 52.7383 50.7408 53.6912 50.1264 54.2469C46.8484 57.2126 42.9505 59.4214 38.7085 60.7082C33.9874 62.1403 28.986 62.386 24.1473 61.4236C19.3086 60.4611 14.7819 58.3201 10.9682 55.1903C7.15453 52.0605 4.17159 48.0385 2.28361 43.4805C0.395634 38.9225 -0.339112 33.9693 0.144458 29.0595C0.628029 24.1497 2.31499 19.435 5.05591 15.3329C7.79683 11.2308 11.5071 7.86801 15.8581 5.54236C19.7675 3.45276 24.0857 2.25841 28.5006 2.03749C29.328 1.99609 30 2.67157 30 3.5C30 4.32843 29.3279 4.99566 28.5007 5.04165C24.5794 5.25972 20.7465 6.33112 17.2723 8.18813C13.3564 10.2812 10.0172 13.3077 7.55032 16.9996C5.08349 20.6915 3.56523 24.9347 3.13001 29.3535C2.6948 33.7723 3.35607 38.2303 5.05525 42.3325C6.75443 46.4346 9.43908 50.0545 12.8714 52.8713C16.3037 55.6881 20.3777 57.615 24.7326 58.4812C29.0874 59.3474 33.5887 59.1263 37.8377 57.8374C41.6074 56.6939 45.0753 54.7411 48.0023 52.1226C48.6197 51.5702 49.5668 51.5668 50.1525 52.1525Z"/>
</mask>
<path d="M50.1525 52.1525C50.7383 52.7383 50.7408 53.6912 50.1264 54.2469C46.8484 57.2126 42.9505 59.4214 38.7085 60.7082C33.9874 62.1403 28.986 62.386 24.1473 61.4236C19.3086 60.4611 14.7819 58.3201 10.9682 55.1903C7.15453 52.0605 4.17159 48.0385 2.28361 43.4805C0.395634 38.9225 -0.339112 33.9693 0.144458 29.0595C0.628029 24.1497 2.31499 19.435 5.05591 15.3329C7.79683 11.2308 11.5071 7.86801 15.8581 5.54236C19.7675 3.45276 24.0857 2.25841 28.5006 2.03749C29.328 1.99609 30 2.67157 30 3.5C30 4.32843 29.3279 4.99566 28.5007 5.04165C24.5794 5.25972 20.7465 6.33112 17.2723 8.18813C13.3564 10.2812 10.0172 13.3077 7.55032 16.9996C5.08349 20.6915 3.56523 24.9347 3.13001 29.3535C2.6948 33.7723 3.35607 38.2303 5.05525 42.3325C6.75443 46.4346 9.43908 50.0545 12.8714 52.8713C16.3037 55.6881 20.3777 57.615 24.7326 58.4812C29.0874 59.3474 33.5887 59.1263 37.8377 57.8374C41.6074 56.6939 45.0753 54.7411 48.0023 52.1226C48.6197 51.5702 49.5668 51.5668 50.1525 52.1525Z" stroke="url(#paint0_linear_202_135)" stroke-width="8" mask="url(#path-2-inside-2_202_135)"/>
<path d="M56.8098 18.5854C56.8697 18.4011 57.1303 18.4011 57.1902 18.5854L57.6286 19.9348C57.6554 20.0172 57.7322 20.0729 57.8189 20.0729H59.2376C59.4314 20.0729 59.5119 20.3209 59.3552 20.4348L58.2074 21.2687C58.1373 21.3196 58.1079 21.4099 58.1347 21.4923L58.5731 22.8416C58.633 23.0259 58.4221 23.1791 58.2654 23.0652L57.1176 22.2313C57.0475 22.1804 56.9525 22.1804 56.8824 22.2313L55.7346 23.0652C55.5779 23.1791 55.367 23.0259 55.4269 22.8416L55.8653 21.4923C55.8921 21.4099 55.8627 21.3196 55.7926 21.2687L54.6448 20.4348C54.4881 20.3209 54.5686 20.0729 54.7624 20.0729H56.1811C56.2678 20.0729 56.3446 20.0172 56.3714 19.9348L56.8098 18.5854Z" fill="#FFFA86"/>
<path d="M53.8098 8.58541C53.8697 8.40115 54.1303 8.40115 54.1902 8.58541L54.8532 10.6257C54.8799 10.7081 54.9567 10.7639 55.0434 10.7639H57.1887C57.3824 10.7639 57.463 11.0119 57.3062 11.1257L55.5706 12.3867C55.5005 12.4377 55.4712 12.5279 55.498 12.6103L56.1609 14.6507C56.2208 14.8349 56.0099 14.9881 55.8532 14.8743L54.1176 13.6133C54.0475 13.5623 53.9525 13.5623 53.8824 13.6133L52.1468 14.8743C51.9901 14.9881 51.7792 14.8349 51.8391 14.6507L52.502 12.6103C52.5288 12.5279 52.4995 12.4377 52.4294 12.3867L50.6938 11.1257C50.537 11.0119 50.6176 10.7639 50.8113 10.7639H52.9566C53.0433 10.7639 53.1201 10.7081 53.1468 10.6257L53.8098 8.58541Z" fill="#FFFA86"/>
<path d="M43.8098 0.58541C43.8697 0.401148 44.1303 0.401148 44.1902 0.58541L45.3022 4.0077C45.329 4.09011 45.4057 4.1459 45.4924 4.1459H49.0908C49.2845 4.1459 49.3651 4.39382 49.2084 4.5077L46.2972 6.62279C46.2271 6.67372 46.1978 6.764 46.2245 6.8464L47.3365 10.2687C47.3964 10.453 47.1855 10.6062 47.0287 10.4923L44.1176 8.37721C44.0475 8.32628 43.9525 8.32628 43.8824 8.37721L40.9713 10.4923C40.8145 10.6062 40.6036 10.453 40.6635 10.2687L41.7755 6.8464C41.8022 6.764 41.7729 6.67372 41.7028 6.62279L38.7916 4.5077C38.6349 4.39382 38.7155 4.1459 38.9092 4.1459H42.5076C42.5943 4.1459 42.671 4.09011 42.6978 4.0077L43.8098 0.58541Z" fill="#FFFA86"/>
<defs>
<linearGradient id="paint0_linear_202_135" x1="43.8487" y1="-157.375" x2="150.24" y2="-116.122" gradientUnits="userSpaceOnUse">
<stop stop-color="#3BB0A2"/>
<stop offset="1" stop-color="#2A856F"/>
</linearGradient>
</defs>
</svg>
