<svg width="88" height="32" viewBox="0 0 88 32" fill="none" xmlns="http://www.w3.org/2000/svg">
<g clip-path="url(#clip0_30_2841)">
<path d="M58.4782 6.74931V21.6984C58.4782 21.9352 58.2996 22.1129 58.0615 22.1129H54.9963C54.7582 22.1129 54.5796 21.9352 54.5796 21.6984V6.74931C54.5796 6.51249 54.7582 6.33488 54.9963 6.33488H58.0615C58.2996 6.33488 58.4782 6.51249 58.4782 6.74931ZM82.4051 6.33488H78.9827C78.8042 6.33488 78.6554 6.45328 78.5959 6.6309L75.8877 15.482L72.9117 6.6309C72.8522 6.45328 72.7034 6.36448 72.5248 6.36448H70.1143C69.9357 6.36448 69.7869 6.48289 69.7274 6.6309L66.7514 15.482L63.9838 6.6309C63.9242 6.45328 63.7754 6.33488 63.5969 6.33488H60.1745C60.0555 6.33488 59.9067 6.39408 59.8471 6.51249C59.7579 6.6309 59.7579 6.74931 59.7876 6.86772L64.8468 21.8464C64.9063 22.0241 65.0551 22.1129 65.2337 22.1129H67.9716C68.1501 22.1129 68.2989 21.9945 68.3585 21.8464L71.3047 13.1138L74.2509 21.8464C74.3104 22.0241 74.4592 22.1129 74.6378 22.1129H77.3757C77.5543 22.1129 77.7031 21.9945 77.7626 21.8464L82.8218 6.86772C82.8515 6.74931 82.8515 6.60129 82.7623 6.51249C82.673 6.39408 82.5539 6.33488 82.4051 6.33488ZM87.5834 6.33488H84.5181C84.28 6.33488 84.1014 6.51249 84.1014 6.74931V21.6984C84.1014 21.9352 84.28 22.1129 84.5181 22.1129H87.5834C87.8214 22.1129 88 21.9352 88 21.6984V6.74931C88 6.51249 87.7917 6.33488 87.5834 6.33488ZM52.8238 21.6096C53.0024 21.8168 52.8536 22.1129 52.5857 22.1129H48.8062C48.6574 22.1129 48.5086 22.0537 48.4193 21.9352L47.7944 21.1656C46.485 21.9944 44.9374 22.4977 43.3006 22.4977C38.7176 22.4977 34.9976 18.7974 34.9976 14.2387C34.9976 9.67993 38.7176 5.97965 43.3006 5.97965C47.8837 5.97965 51.6036 9.67993 51.6036 14.2387C51.6036 15.8668 51.1275 17.4061 50.2942 18.7086L52.8238 21.6096ZM45.3541 18.2646L43.7173 16.2812C43.5387 16.074 43.6875 15.7484 43.9554 15.7484H47.4075C47.5861 15.2747 47.6753 14.7419 47.6753 14.2091C47.6753 11.7521 45.8302 9.62072 43.3006 9.62072C40.771 9.62072 38.9259 11.7521 38.9259 14.2091C38.9259 16.666 40.771 18.7678 43.3006 18.7678C44.0446 18.7974 44.7291 18.5902 45.3541 18.2646ZM25.534 21.5208C25.6233 22.1425 25.4149 22.4089 25.2364 22.4089C25.0281 22.4089 24.7602 22.1425 24.4329 21.6688C24.1055 21.1656 23.9865 20.6031 24.165 20.3367C24.2543 20.1591 24.4924 20.0703 24.7602 20.1591C25.2661 20.3367 25.4745 21.136 25.534 21.5208ZM22.5878 22.8825C23.2127 23.4154 23.421 24.0666 23.0937 24.5106C22.9151 24.7475 22.6175 24.8955 22.2306 24.8955C21.8735 24.8955 21.5164 24.7771 21.2486 24.5402C20.6831 24.037 20.5046 23.2081 20.8914 22.7641C21.0402 22.5865 21.2783 22.4977 21.5759 22.4977C21.9033 22.4681 22.2604 22.6161 22.5878 22.8825ZM21.5164 28.0333C24.2543 28.0333 27.2303 28.9806 30.5336 31.8816C30.861 32.1776 31.3074 31.8224 31.0098 31.4376C27.766 27.3821 24.79 26.6124 21.814 25.9611C18.1535 25.1619 16.2787 23.1193 14.9692 20.8696C14.7014 20.4255 14.5823 20.5143 14.5823 21.0768C14.5526 21.7872 14.6121 22.7049 14.7609 23.6226C14.6121 23.6226 14.4633 23.6226 14.3145 23.6226C9.10653 23.6226 4.85086 19.4191 4.85086 14.2091C4.85086 8.99907 9.07677 4.79556 14.3145 4.79556C19.5225 4.79556 23.7782 8.99907 23.7782 14.2091C23.7782 14.5643 23.7484 14.9491 23.7186 15.3043C23.0342 15.1859 21.6652 15.1563 20.7129 15.2451C20.3558 15.2747 20.4153 15.4524 20.6831 15.482C23.8079 16.0444 25.9506 17.9685 26.4565 21.4616C26.4565 21.5504 26.5756 21.58 26.6053 21.4912C27.885 19.3599 28.629 16.8733 28.629 14.1795C28.5993 6.36448 22.2009 0 14.3145 0C6.39838 0 0 6.36448 0 14.2387C0 22.1129 6.39838 28.4773 14.3145 28.4773C16.3977 28.4477 18.4809 28.0333 21.5164 28.0333Z" fill="#FF8C00"/>
</g>
<defs>
<clipPath id="clip0_30_2841">
<rect width="88" height="32" fill="white"/>
</clipPath>
</defs>
</svg>
