<svg width="16" height="16" viewBox="0 0 16 16" fill="none" xmlns="http://www.w3.org/2000/svg">
<path d="M12.6065 9.79502C12.6065 10.655 13.3132 11.355 14.1732 11.355C14.1732 13.855 13.5465 14.4817 11.0465 14.4817H4.79317C2.29317 14.4817 1.6665 13.855 1.6665 11.355V11.0484C2.5265 11.0484 3.23317 10.3417 3.23317 9.48169C3.23317 8.62169 2.5265 7.91502 1.6665 7.91502V7.60836C1.67317 5.10836 2.29317 4.48169 4.79317 4.48169H11.0398C13.5398 4.48169 14.1665 5.10836 14.1665 7.60836V8.23502C13.3065 8.23502 12.6065 8.92836 12.6065 9.79502Z" stroke="#C0C0D5" stroke-width="1.2" stroke-linecap="round" stroke-linejoin="round"/>
<path d="M10.8076 4.48158H4.74756L6.70089 2.52825C8.29423 0.934919 9.09423 0.934919 10.6876 2.52825L11.0876 2.92825C10.6676 3.34825 10.5676 3.96825 10.8076 4.48158Z" stroke="#C0C0D5" stroke-width="1.2" stroke-linecap="round" stroke-linejoin="round"/>
<path d="M6.58594 4.48169L6.58594 14.4817" stroke="#C0C0D5" stroke-width="1.2" stroke-linecap="round" stroke-linejoin="round" stroke-dasharray="5 5"/>
</svg>
