<svg width="128" height="28" viewBox="0 0 128 28" fill="none" xmlns="http://www.w3.org/2000/svg">
<g clip-path="url(#clip0_30_2827)">
<path d="M99.6424 14.009C99.6424 9.55484 101.748 5.60359 105.016 3.03528C102.602 1.13149 99.5517 0 96.2475 0C88.4229 0 82.0869 6.26812 82.0869 14.009C82.0869 21.7498 88.4229 28.018 96.2475 28.018C99.5698 28.018 102.62 26.8865 105.034 25.0006C101.748 22.4144 99.6424 18.4452 99.6424 14.009Z" fill="#E30D17"/>
<path d="M99.6426 14.0091C99.6426 18.4632 101.749 22.4145 105.016 24.9828C108.284 22.4145 110.39 18.4632 110.39 14.0091C110.39 9.55496 108.284 5.60371 105.016 3.0354C101.749 5.58575 99.6426 9.55496 99.6426 14.0091Z" fill="#EB610A"/>
<path d="M113.803 0C110.481 0 107.431 1.13149 105.017 3.01732C108.284 5.58563 110.39 9.53688 110.39 13.991C110.39 18.4452 108.284 22.3964 105.017 24.9647C107.431 26.8505 110.481 27.982 113.803 27.982C121.628 27.982 127.964 21.7139 127.964 13.9731C127.964 6.2322 121.61 0 113.803 0Z" fill="#F69F00"/>
</g>
<g clip-path="url(#clip1_30_2827)">
<path d="M27.7349 24.8524H22.5312L25.8037 3.20483H31.0074L27.7349 24.8524Z" fill="white"/>
<path d="M18.1324 3.20485L13.1433 18.0803L12.5532 14.8968L10.7829 5.11493C10.7829 5.11493 10.5683 3.14697 8.31517 3.14697H0.107293L0 3.55214C0 3.55214 2.52137 4.13095 5.47192 6.04103L10.0319 24.8524H15.4501L23.7653 3.20485H18.1324Z" fill="white"/>
<path d="M59.1709 24.8524H63.9455L59.7611 3.20483H55.5766C53.6454 3.20483 53.1626 4.82551 53.1626 4.82551L45.4375 24.8524H50.8558L51.9287 21.611H58.5808L59.1709 24.8524ZM53.4308 17.1542L56.1668 9.05083L57.7225 17.1542H53.4308Z" fill="white"/>
<path d="M45.8141 8.4145L46.5652 3.78401C46.5652 3.78401 44.2584 2.85791 41.8443 2.85791C39.2693 2.85791 33.1 4.07341 33.1 10.0352C33.1 15.6496 40.3422 15.7075 40.3422 18.6595C40.3422 21.6114 33.851 21.0905 31.7051 19.2383L30.9541 24.1003C30.9541 24.1003 33.2609 25.3158 36.8552 25.3158C40.3958 25.3158 45.8141 23.3478 45.8141 17.907C45.8141 12.2925 38.5182 11.7716 38.5182 9.28272C38.5182 6.73595 43.6146 7.08323 45.8141 8.4145Z" fill="white"/>
<path d="M12.5532 14.839L10.7829 5.11493C10.7829 5.11493 10.5683 3.14697 8.31517 3.14697H0.107293L0 3.55214C0 3.55214 3.96982 4.42036 7.72506 7.77746C11.373 10.903 12.5532 14.839 12.5532 14.839Z" fill="#F7A823"/>
</g>
<defs>
<clipPath id="clip0_30_2827">
<rect width="45.913" height="28" fill="white" transform="translate(82.0869)"/>
</clipPath>
<clipPath id="clip1_30_2827">
<rect width="64" height="22.4" fill="white" transform="translate(0 2.80005)"/>
</clipPath>
</defs>
</svg>
